# Blender v2.69 (sub 0) OBJ File: ''
# www.blender.org
mtllib untitled.mtl
o Cube
v 1.000000 -1.000000 -1.000000
v 1.000000 -1.000000 1.000000
v -1.000000 -1.000000 1.000000
v -1.000000 -1.000000 -1.000000
v 1.000000 1.000000 -0.999999
v 0.999999 1.000000 1.000001
v -1.000000 1.000000 1.000000
v -1.000000 1.000000 -1.000000
vt 0.000000 0.000000
vt 1.000000 0.000000
vt 0.000000 1.000000
vt 1.000000 1.000000
vn 0.000000 -1.000000 0.000000
vn 0.000000 1.000000 0.000000
vn 0.000000 -0.000000 1.000000
vn -1.000000 -0.000000 -0.000000
vn 0.000000 0.000000 -1.000000
vn 1.000000 -0.000000 0.000000
vn 1.000000 0.000000 0.000001
usemtl Material
s off
f 1/1/1 2/2/1 4/3/1
f 5/1/2 8/2/2 6/3/2
f 2/1/3 6/2/3 3/3/3
f 3/1/4 7/2/4 4/3/4
f 5/1/5 1/2/5 8/3/5
f 2/2/1 3/4/1 4/3/1
f 8/2/2 7/4/2 6/3/2
f 6/2/3 7/4/3 3/3/3
f 7/2/4 8/4/4 4/3/4
f 1/2/5 4/4/5 8/3/5
usemtl Material.001
f 1/1/6 5/2/6 2/3/6
f 5/2/7 6/4/7 2/3/7
